<svg width="19" height="19" viewBox="0 0 19 19" fill="none" xmlns="http://www.w3.org/2000/svg">
<path d="M9.08333 0.75C11.1677 3.03196 12.3523 5.99336 12.4167 9.08333C12.3523 12.1733 11.1677 15.1347 9.08333 17.4167M9.08333 0.75C6.99893 3.03196 5.81437 5.99336 5.75 9.08333C5.81437 12.1733 6.99893 15.1347 9.08333 17.4167M9.08333 0.75C4.48096 0.75 0.75 4.48096 0.75 9.08333C0.75 13.6857 4.48096 17.4167 9.08333 17.4167M9.08333 0.75C13.6857 0.75 17.4167 4.48096 17.4167 9.08333C17.4167 13.6857 13.6857 17.4167 9.08333 17.4167M1.16668 6.58333H17M1.16667 11.5833H17" stroke="#0B1C2C" stroke-width="1.5" stroke-linecap="round" stroke-linejoin="round"/>
</svg>
